<svg xmlns="http://www.w3.org/2000/svg" version="1.0" viewBox="0 0 468 468">
  <path d="M36.771 15.178C23.868 17.384 9.293 26.343 7.421 33.162c-.535 1.872-.735 45.262-.735 148.89 0 129.302.133 146.618 1.003 148.423 2.005 4.212 9.76 13.773 22.998 28.481 9.962 11.098 13.439 15.444 13.439 16.648 0 1.27-1.672 3.276-6.285 7.822-3.477 3.41-6.752 7.087-7.287 8.156-4.68 9.026 1.604 22.464 18.252 38.978 8.424 8.357 16.714 14.441 25.405 18.653l6.352 3.076 8.691-.067c18.653-.2 36.771-6.686 54.489-19.522 12.77-9.227 27.077-26.476 35.033-42.12l1.738-3.477 128.232-.134 128.164-.2 3.01-1.605c7.286-3.878 15.577-14.307 19.12-23.935l1.939-5.214V122.684l-2.474-5.015c-3.744-7.688-9.828-15.444-20.525-26.14-13.505-13.439-29.216-25.005-39.646-29.084-3.61-1.404-28.548-4.88-172.692-24.068C132.98 26.075 55.09 15.712 52.482 15.378c-4.746-.602-12.635-.735-15.71-.2zm204.45 75.08c196.893 26.141 185.394 24.536 189.873 26.208 7.154 2.674 10.23 7.154 11.5 16.647.467 3.945.668 37.373.534 109.913l-.2 104.297-1.872 5.349c-2.274 6.418-5.75 11.967-8.692 13.705-2.072 1.338-4.212 1.338-132.644 1.338H169.148l-3.008 5.95c-6.218 12.502-12.97 22.999-19.656 30.82-11.032 12.837-23 21.328-34.499 24.404-4.479 1.203-20.725 2.206-20.257 1.27.134-.334 2.34-4.814 4.814-9.962 8.624-17.65 9.76-22.263 9.76-39.111 0-10.363-.133-11.366-1.136-11.366-1.738-.067-13.17-1.136-24.938-2.34-11.833-1.27-15.176-2.407-19.12-6.418l-2.608-2.674-.2-139.731-.134-139.732 2.808-2.674c4.145-3.878 10.496-7.956 12.301-7.956.87 0 76.418 9.962 167.945 22.063z"/>
</svg>
