<svg xmlns="http://www.w3.org/2000/svg" viewBox="0 0 436.25 618.25">
  <defs>
    <linearGradient id="a" x1="-1223.7" x2="-1223.7" y1="90.156" y2="-247.41" gradientTransform="translate(1444.3 503.06)" gradientUnits="userSpaceOnUse">
      <stop offset="0" stop-color="#fff"/>
      <stop offset="1" stop-color="#fff" stop-opacity="0"/>
    </linearGradient>
  </defs>
  <rect width="428.25" height="610.25" x="4" y="4" fill="#3c3c3c" stroke="#666" stroke-linejoin="round" stroke-width="8" rx="29.358" ry="29.358"/>
  <path d="M75.189 26.286h286.9c8.864 0 16 7.136 16 16 0 0 35 158.74 35 267.46s-35 267.46-35 267.46c0 8.864-7.136 16-16 16h-286.9c-8.864 0-16-7.136-16-16 0 0-35-158.74-35-267.46s35-267.46 35-267.46c0-8.864 7.136-16 16-16z" style="color:#000"/>
  <path fill="#3c3c3c" d="M75.189 160.57h286.9c8.864 0 11.959 3.678 16 12.21 0 0 27 55.937 27 135.5 0 79.558-27 272.73-27 272.73 0 6.764-7.136 12.21-16 12.21h-286.9c-8.864 0-16-5.446-16-12.21 0 0-27-193.17-27-272.73 0-79.558 27-135.5 27-135.5 0-6.764 7.136-12.21 16-12.21z" style="color:#000"/>
  <path fill="none" stroke="#fff" stroke-width="10" d="M-1168.6-19.066a41.429 42.857 0 1 1-82.857 0 41.429 42.857 0 1 1 82.857 0z" style="color:#000" transform="translate(2592.2 517.39) scale(1.9617)"/>
  <rect width="21" height="112.99" x="208.84" y="195.58" fill="#fff" ry="0" style="color:#000"/>
  <path fill="#fff" d="M72.604 28.277h290.86c6.51 0 11.429 4.931 11.429 11.429l-6 107.14c0 6.249-5.187 11.429-11.429 11.429H78.604c-6.242 0-11.428-5.18-11.428-11.429l-6-107.14c0-6.497 4.918-11.429 11.428-11.429z" opacity=".142" style="color:#000"/>
  <path fill="#cccccf" d="M376.29 47.859c-1.625 37.086-2.905 70.912-4.44 108.01.407 2.602.424 2.93 1.83 4.286 7.476 8.62 13.98 26.168 17.468 41.47.005.022.026.04.031.062.006.02-.006.044 0 .063 17.867 55.232 18.446 113.96 12.875 170.97v.03c-3.62 43.92-8.613 87.694-14 131.41 11.768-66.001 20.803-132.5 21.125-199.47a1.057 1.057 0 0 1 0-.03c-1.939-87.508-16.455-171.01-33.8-256.76-.152-.866-1.029-.762-1.089-.03z" style="color:#000"/>
  <path fill="url(#a)" d="M399.22 323.65c-136.83 0-262.76 22.686-362.81 60.75 7.592 87.904 22.781 196.59 22.781 196.59 0 6.764 7.136 12.219 16 12.219h286.91c8.864 0 16-5.454 16-12.219 0 0 23.873-170.79 26.719-257.31-1.866-.008-3.723-.031-5.594-.031z" opacity=".279" style="color:#000"/>
</svg>
