<svg xmlns="http://www.w3.org/2000/svg" viewBox="0 0 436.25 618.25">
  <defs>
    <linearGradient id="a" x1="229.87" x2="229.87" y1="745.62" y2="350.99" gradientTransform="matrix(-1.1691 0 0 -.85539 485.39 664.08)" gradientUnits="userSpaceOnUse">
      <stop offset="0" stop-color="#fff"/>
      <stop offset="1" stop-color="#fff" stop-opacity="0"/>
    </linearGradient>
  </defs>
  <rect width="428.25" height="610.25" x="4" y="4" fill="#3c3c3c" stroke="#666" stroke-linejoin="round" stroke-width="8" rx="29.358" ry="29.358"/>
  <path d="M362.09 593.21H75.19c-8.864 0-16-7.136-16-16 0 0-35-158.74-35-267.46s35-267.46 35-267.46c0-8.864 7.136-16 16-16h286.9c8.864 0 16 7.136 16 16 0 0 35 158.74 35 267.46s-35 267.46-35 267.46c0 8.864-7.136 16-16 16z"/>
  <path fill="#3c3c3c" d="M362.09 458.93H75.19c-8.864 0-11.959-3.678-16-12.21 0 0-27-55.937-27-135.5 0-79.558 27-272.73 27-272.73 0-6.764 7.136-12.21 16-12.21h286.9c8.864 0 16 5.446 16 12.21 0 0 27 193.17 27 272.73 0 79.558-27 135.5-27 135.5 0 6.764-7.136 12.21-16 12.21z"/>
  <path fill="#fff" d="M364.67 591.22H73.81c-6.51 0-11.429-4.931-11.429-11.429l6-107.14c0-6.249 5.187-11.429 11.429-11.429h278.86c6.242 0 11.428 5.18 11.428 11.429l6 107.14c0 6.497-4.918 11.429-11.428 11.429z" opacity=".142"/>
  <path fill="url(#a)" d="M38.047 295.85c136.83 0 262.76-22.686 362.82-60.75-7.6-87.903-22.79-196.59-22.79-196.59 0-6.764-7.13-12.219-16-12.219h-286.9c-8.87 0-16 5.454-16 12.219 0 0-23.87 170.79-26.72 257.31 1.87.008 3.72.031 5.59.031z" opacity=".279"/>
  <path fill="#fff" d="M207.62 77.759h21v126h-21z"/>
  <path fill="#cccccf" d="M374.57 567.97c-1.624-37.086-2.905-70.912-4.44-108.01.407-2.602.424-2.93 1.83-4.286 7.477-8.621 13.98-26.167 17.47-41.469.004-.022.025-.041.03-.063.006-.019-.006-.043 0-.062 17.867-55.232 18.446-113.96 12.875-170.97v-.031c-3.62-43.919-8.613-87.694-14-131.41 11.768 66.002 20.803 132.5 21.125 199.47a1.102 1.102 0 0 0 0 .031c-1.939 87.508-16.455 171.01-33.8 256.76-.153.867-1.03.763-1.09.03z"/>
  <path fill="none" stroke="#fff" stroke-width="10" d="M-1168.6-19.066a41.429 42.857 0 1 1-82.857 0 41.429 42.857 0 1 1 82.857 0z" style="color:#000" transform="matrix(1.9617 0 0 1.7787 2591.7 387.81)"/>
</svg>
